<svg width="35" height="35" viewBox="0 0 40 40" fill="none" xmlns="http://www.w3.org/2000/svg">
<g filter="url(#filter0_d_37_18)">
<path fill-rule="evenodd" clip-rule="evenodd" d="M44 5C44 2.23858 41.7614 0 39 0H9C6.23858 0 4 2.23858 4 5V35C4 37.7614 6.23858 40 9 40H30.1897C31.3594 40 32.4921 39.5899 33.3907 38.8411L42.2009 31.4992C43.3409 30.5493 44 29.142 44 27.6581V5ZM32 32.3254C32 31.0411 33.0411 30 34.3254 30V30C36.497 30 37.4834 32.7126 35.819 34.1076V34.1076C34.3057 35.3759 32 34.3 32 32.3254V32.3254ZM26 32.5C26 32.0398 25.6269 31.6667 25.1667 31.6667H10.8333C10.3731 31.6667 10 32.0398 10 32.5V32.5C10 32.9602 10.3731 33.3333 10.8333 33.3333H25.1667C25.6269 33.3333 26 32.9602 26 32.5V32.5ZM26 27.5C26 27.0398 25.6269 26.6667 25.1667 26.6667H10.8333C10.3731 26.6667 10 27.0398 10 27.5V27.5C10 27.9602 10.3731 28.3333 10.8333 28.3333H25.1667C25.6269 28.3333 26 27.9602 26 27.5V27.5ZM37.1667 23.3333C37.6269 23.3333 38 22.9602 38 22.5V22.5C38 22.0398 37.6269 21.6667 37.1667 21.6667H10.8333C10.3731 21.6667 10 22.0398 10 22.5V22.5C10 22.9602 10.3731 23.3333 10.8333 23.3333H37.1667ZM23.882 15.0533C21.588 14.6117 19.454 14.225 20.488 12.5983C23.634 7.64833 21.322 5 18 5C14.612 5 12.358 7.75 15.512 12.5983C16.576 14.235 14.362 14.6217 12.118 15.0533C10.07 15.4483 9.994 16.295 10 17.7783V17.7783C10.0011 18.0852 10.2502 18.3333 10.557 18.3333H25.4577C25.7553 18.3333 25.9969 18.0926 25.998 17.795V17.795C26.006 16.3017 25.938 15.45 23.882 15.0533ZM38 17.5C38 17.0398 37.6269 16.6667 37.1667 16.6667H30.8333C30.3731 16.6667 30 17.0398 30 17.5V17.5C30 17.9602 30.3731 18.3333 30.8333 18.3333H37.1667C37.6269 18.3333 38 17.9602 38 17.5V17.5ZM37.1667 13.3333C37.6269 13.3333 38 12.9602 38 12.5V12.5C38 12.0398 37.6269 11.6667 37.1667 11.6667H30.8333C30.3731 11.6667 30 12.0398 30 12.5V12.5C30 12.9602 30.3731 13.3333 30.8333 13.3333H37.1667ZM38 7.5C38 7.03976 37.6269 6.66667 37.1667 6.66667H30.8333C30.3731 6.66667 30 7.03976 30 7.5V7.5C30 7.96024 30.3731 8.33333 30.8333 8.33333H37.1667C37.6269 8.33333 38 7.96024 38 7.5V7.5Z" fill="white"/>
<path d="M23.9765 14.5623L23.9767 14.5624C25.0514 14.7697 25.7575 15.1218 26.1413 15.7532C26.5009 16.345 26.5018 17.0841 26.498 17.7977C26.4954 18.3703 26.0304 18.8333 25.4577 18.8333H10.557C9.97472 18.8333 9.5021 18.3624 9.5 17.7801M23.9765 14.5623L10 17.7783M23.9765 14.5623L23.8922 14.5461C23.3453 14.4409 22.825 14.3408 22.3572 14.2265C21.8617 14.1054 21.4579 13.9758 21.1656 13.8255C20.8653 13.6712 20.7634 13.5366 20.7339 13.4482C20.71 13.3762 20.693 13.2079 20.91 12.8666L20.91 12.8665C22.5215 10.3309 22.8287 8.23879 22.1223 6.73081C21.4113 5.21311 19.7768 4.5 18 4.5C16.1859 4.5 14.5497 5.24183 13.8482 6.77275C13.1515 8.29317 13.475 10.384 15.0929 12.871M23.9765 14.5623L20.488 12.5983C23.634 7.64833 21.322 5 18 5C14.612 5 12.358 7.75 15.512 12.5983M9.5 17.7801L10 17.7783M9.5 17.7801C9.5 17.7802 9.5 17.7803 9.5 17.7804L10 17.7783M9.5 17.7801C9.49713 17.0701 9.5009 16.335 9.86271 15.746C10.2479 15.1189 10.9529 14.7688 12.0233 14.5624L12.0235 14.5623L12.1042 14.5468C13.2282 14.3307 14.2216 14.1397 14.8295 13.8317C15.1367 13.676 15.2425 13.5397 15.2728 13.4505C15.2965 13.381 15.3158 13.214 15.0929 12.871M10 17.7783C9.994 16.295 10.07 15.4483 12.118 15.0533C12.1639 15.0445 12.2098 15.0357 12.2556 15.0269C14.4512 14.6053 16.5542 14.2015 15.512 12.5983M15.0929 12.871L15.512 12.5983M15.0929 12.871C15.0929 12.8709 15.0928 12.8709 15.0928 12.8709L15.512 12.5983M9 0.5H39C41.4853 0.5 43.5 2.51472 43.5 5V27.6581C43.5 28.9936 42.9068 30.2601 41.8808 31.1151L33.0706 38.457C32.2619 39.1309 31.2425 39.5 30.1898 39.5H9C6.51472 39.5 4.5 37.4853 4.5 35V5C4.5 2.51472 6.51472 0.5 9 0.5ZM37.1667 21.1667H10.8333C10.097 21.1667 9.5 21.7636 9.5 22.5C9.5 23.2364 10.097 23.8333 10.8333 23.8333H37.1667C37.903 23.8333 38.5 23.2364 38.5 22.5C38.5 21.7636 37.903 21.1667 37.1667 21.1667ZM10.8333 33.8333H25.1667C25.903 33.8333 26.5 33.2364 26.5 32.5C26.5 31.7636 25.903 31.1667 25.1667 31.1667H10.8333C10.097 31.1667 9.5 31.7636 9.5 32.5C9.5 33.2364 10.097 33.8333 10.8333 33.8333ZM25.1667 26.1667H10.8333C10.097 26.1667 9.5 26.7636 9.5 27.5C9.5 28.2364 10.097 28.8333 10.8333 28.8333H25.1667C25.903 28.8333 26.5 28.2364 26.5 27.5C26.5 26.7636 25.903 26.1667 25.1667 26.1667ZM37.1667 16.1667H30.8333C30.097 16.1667 29.5 16.7636 29.5 17.5C29.5 18.2364 30.097 18.8333 30.8333 18.8333H37.1667C37.903 18.8333 38.5 18.2364 38.5 17.5C38.5 16.7636 37.903 16.1667 37.1667 16.1667ZM37.1667 11.1667H30.8333C30.097 11.1667 29.5 11.7636 29.5 12.5C29.5 13.2364 30.097 13.8333 30.8333 13.8333H37.1667C37.903 13.8333 38.5 13.2364 38.5 12.5C38.5 11.7636 37.903 11.1667 37.1667 11.1667ZM37.1667 6.16667H30.8333C30.097 6.16667 29.5 6.76362 29.5 7.5C29.5 8.23638 30.097 8.83333 30.8333 8.83333H37.1667C37.903 8.83333 38.5 8.23638 38.5 7.5C38.5 6.76362 37.903 6.16667 37.1667 6.16667ZM31.5 32.3254C31.5 34.7245 34.3014 36.0319 36.1402 34.4908C38.1625 32.7959 36.964 29.5 34.3254 29.5C32.765 29.5 31.5 30.765 31.5 32.3254Z" stroke="black"/>
</g>
<defs>
<filter id="filter0_d_37_18" x="0" y="0" width="48" height="48" filterUnits="userSpaceOnUse" color-interpolation-filters="sRGB">
<feFlood flood-opacity="0" result="BackgroundImageFix"/>
<feColorMatrix in="SourceAlpha" type="matrix" values="0 0 0 0 0 0 0 0 0 0 0 0 0 0 0 0 0 0 127 0" result="hardAlpha"/>
<feOffset dy="4"/>
<feGaussianBlur stdDeviation="2"/>
<feComposite in2="hardAlpha" operator="out"/>
<feColorMatrix type="matrix" values="0 0 0 0 0 0 0 0 0 0 0 0 0 0 0 0 0 0 0.25 0"/>
<feBlend mode="normal" in2="BackgroundImageFix" result="effect1_dropShadow_37_18"/>
<feBlend mode="normal" in="SourceGraphic" in2="effect1_dropShadow_37_18" result="shape"/>
</filter>
</defs>
</svg>
